<?xml version="1.0" encoding="UTF-8"?>
<svg width="24" height="24" viewBox="0 0 24 24" fill="none" xmlns="http://www.w3.org/2000/svg">
    <!-- Main tank body -->
    <path d="M7 4h10v16H7z" stroke="#41BDF5" stroke-width="2" fill="#FFFFFF"/>
    
    <!-- Top cap -->
    <path d="M6 4h12v2H6z" fill="#41BDF5"/>
    
    <!-- Bottom cap -->
    <path d="M6 18h12v2H6z" fill="#41BDF5"/>
    
    <!-- Water level waves -->
    <path d="M8 12c1-0.5 2-0.5 3 0s2 0.5 3 0" stroke="#41BDF5" stroke-width="1" fill="none"/>
    <path d="M8 14c1-0.5 2-0.5 3 0s2 0.5 3 0" stroke="#41BDF5" stroke-width="1" fill="none"/>
    <path d="M8 16c1-0.5 2-0.5 3 0s2 0.5 3 0" stroke="#41BDF5" stroke-width="1" fill="none"/>
    
    <!-- Salt crystals -->
    <path d="M9 8l1-1 1 1-1 1z" fill="#41BDF5"/>
    <path d="M12 9l1-1 1 1-1 1z" fill="#41BDF5"/>
</svg>