<svg width="130" height="74" viewBox="0 0 130 74" fill="none" xmlns="http://www.w3.org/2000/svg">
<g id="EcoWater Logo" clip-path="url(#clip0_1195_2012)">
<path id="Vector" d="M125.356 2.52953V2.51619C125.356 1.26467 126.384 0.210693 127.678 0.210693C128.972 0.210693 130 1.25133 130 2.50285V2.51619C130 3.76771 128.973 4.82233 127.678 4.82233C126.383 4.82233 125.356 3.78122 125.356 2.52969V2.52953ZM129.733 2.51619V2.50285C129.733 1.38329 128.852 0.460644 127.678 0.460644C126.503 0.460644 125.623 1.39615 125.623 2.51619V2.52953C125.623 3.64909 126.504 4.57174 127.678 4.57174C128.852 4.57174 129.733 3.63623 129.733 2.51619ZM126.664 1.26467H127.838C128.439 1.26467 128.866 1.51462 128.866 2.08107C128.866 2.46347 128.666 2.72692 128.359 2.84539L128.946 3.68863H128.145L127.651 2.96385H127.358V3.68863H126.664V1.26467ZM127.798 2.42393C128.038 2.42393 128.172 2.3053 128.172 2.13427C128.172 1.94974 128.038 1.84414 127.798 1.84414H127.358V2.42393H127.798Z" fill="#222222"/>
<path id="Vector_2" d="M11.0859 5.2427H2.77455V8.97236H10.1415V11.2721H2.77455V15.1466H11.1907V17.4463H0.214355V2.94299H11.0859V5.2427Z" fill="#222222"/>
<path id="Vector_3" d="M26.2903 16.1824C25.8774 16.5005 25.4334 16.7729 24.958 17.001C24.482 17.2285 23.9609 17.4017 23.3942 17.5186C22.8275 17.6361 22.2016 17.6946 21.5158 17.6946C20.4524 17.6946 19.4625 17.5016 18.5463 17.1148C17.6296 16.7281 16.8391 16.1965 16.1745 15.5195C15.51 14.8431 14.9888 14.0518 14.6112 13.147C14.233 12.2426 14.0444 11.2652 14.0444 10.2154C14.0444 9.16558 14.2297 8.20548 14.6003 7.29408C14.9709 6.3822 15.4926 5.58445 16.164 4.90114C16.8357 4.21719 17.6366 3.67871 18.5668 3.2849C19.4976 2.89124 20.5152 2.69434 21.6205 2.69434C22.2921 2.69434 22.9038 2.74963 23.4571 2.86006C24.0097 2.97113 24.5172 3.12608 24.9785 3.32621C25.4404 3.52681 25.8668 3.76503 26.2586 4.04118C26.6503 4.31749 27.0214 4.62097 27.3708 4.95258L25.713 6.83806C25.1257 6.29942 24.5029 5.86446 23.8454 5.53301C23.1875 5.20156 22.4391 5.03568 21.5996 5.03568C20.8998 5.03568 20.2526 5.17038 19.6582 5.43962C19.0632 5.70886 18.5524 6.07535 18.1259 6.53764C17.6993 7.00057 17.3635 7.54242 17.1185 8.16401C16.8739 8.78575 16.7512 9.45572 16.7512 10.1739C16.7512 10.8921 16.8739 11.5654 17.1185 12.1941C17.3635 12.8227 17.6993 13.3715 18.1259 13.8409C18.5524 14.3107 19.0632 14.6804 19.6582 14.9497C20.2526 15.2189 20.8997 15.3536 21.5996 15.3536C22.0469 15.3536 22.4598 15.3091 22.8379 15.2189C23.2155 15.1294 23.572 15.0048 23.9078 14.8461C24.2435 14.6873 24.569 14.4904 24.8837 14.2556C25.1989 14.0206 25.5103 13.7583 25.8178 13.4681L27.4762 15.1257C27.0979 15.5124 26.7029 15.8649 26.29 16.1824H26.2903Z" fill="#222222"/>
<path id="Vector_4" d="M44.8963 10.1739C44.8963 11.1964 44.7073 12.1629 44.3295 13.0743C43.9519 13.9862 43.42 14.7839 42.7347 15.4672C42.0489 16.1512 41.2372 16.6935 40.2999 17.0936C39.3625 17.4943 38.3275 17.6945 37.1941 17.6945C36.0607 17.6945 35.025 17.4982 34.0876 17.1044C33.1503 16.7107 32.3461 16.1753 31.6746 15.4983C31.003 14.8219 30.4782 14.0273 30.1005 13.1154C29.7222 12.204 29.5337 11.2375 29.5337 10.215C29.5337 9.19258 29.7222 8.22605 30.1005 7.31465C30.4781 6.40277 31.0095 5.60501 31.6953 4.92106C32.3811 4.2376 33.1923 3.6959 34.1301 3.29469C35.0668 2.89445 36.1025 2.69385 37.2359 2.69385C38.3693 2.69385 39.4045 2.89075 40.3424 3.28441C41.2791 3.67806 42.0839 4.21349 42.7554 4.89052C43.427 5.56692 43.9518 6.36146 44.3295 7.2727C44.7071 8.18458 44.8963 9.15127 44.8963 10.1736V10.1739ZM42.1888 10.2152C42.1888 9.51084 42.0665 8.84457 41.8219 8.21592C41.5769 7.58726 41.234 7.0385 40.7934 6.56865C40.3528 6.09929 39.8246 5.72653 39.209 5.44974C38.5929 5.17407 37.9212 5.03567 37.1942 5.03567C36.4672 5.03567 35.7984 5.17037 35.1898 5.43961C34.5811 5.70885 34.0596 6.07534 33.6265 6.53763C33.1924 7.00056 32.8533 7.54611 32.6082 8.17477C32.3637 8.80343 32.2409 9.46969 32.2409 10.1741C32.2409 10.8784 32.3637 11.5452 32.6082 12.1733C32.8533 12.802 33.1962 13.3512 33.6368 13.8206C34.0774 14.29 34.6056 14.6634 35.2212 14.939C35.8368 15.2158 36.5084 15.3538 37.2359 15.3538C37.9634 15.3538 38.6318 15.2191 39.2404 14.9498C39.849 14.6806 40.3701 14.3147 40.8036 13.8518C41.2372 13.3889 41.5769 12.8433 41.8219 12.2147C42.0665 11.5865 42.1888 10.9197 42.1888 10.2154V10.2152Z" fill="#222222"/>
<path id="Vector_5" d="M56.4177 2.90173H58.6003L62.2104 13.6961L65.7151 2.94304H68.4226L63.3014 17.5497H61.077L57.4674 7.12808L53.8574 17.5497H51.6329L46.5117 2.94304H49.3034L52.8082 13.6961L56.4177 2.90173Z" fill="#222222"/>
<path id="Vector_6" d="M83.6596 17.4462H80.9309L79.4409 13.9445H72.494L70.9829 17.4462H68.3389L74.8027 2.8396H77.1952L83.6595 17.4462H83.6596ZM75.9569 5.88482L73.4389 11.6863H78.4964L75.9567 5.88482H75.9569Z" fill="#222222"/>
<path id="Vector_7" d="M90.9207 17.4463H88.3185V5.30491H83.6592V2.94299H95.5799V5.30491H90.9207V17.4463Z" fill="#222222"/>
<path id="Vector_8" d="M109.6 5.2427H101.288V8.97236H108.655V11.2721H101.288V15.1466H109.704V17.4463H98.728V2.94299H109.6V5.2427Z" fill="#222222"/>
<path id="Vector_9" d="M122.632 17.4463L119.011 12.391H115.769V17.4463H113.208V2.94299H119.756C120.596 2.94299 121.355 3.05021 122.034 3.26383C122.712 3.47842 123.286 3.78206 123.755 4.17571C124.223 4.56936 124.584 5.05271 124.835 5.62623C125.087 6.19911 125.213 6.83805 125.213 7.54225C125.213 8.74443 124.888 9.71096 124.237 10.4431C123.587 11.1753 122.743 11.6795 121.708 11.9554L125.675 17.4461H122.632L122.632 17.4463ZM122.59 7.6776C122.59 6.87293 122.323 6.26582 121.79 5.85641C121.257 5.44765 120.505 5.2427 119.537 5.2427H115.769V10.1327H119.559C120.485 10.1327 121.222 9.9106 121.769 9.46712C122.316 9.02299 122.59 8.42649 122.59 7.6776Z" fill="#222222"/>
<path id="Vector_10" d="M1.30289 24.0619C1.30289 24.1826 1.32357 24.2861 1.36427 24.3724C1.40498 24.4587 1.47939 24.5393 1.58766 24.6143C1.69578 24.6889 1.84525 24.758 2.03493 24.8214C2.22511 24.8847 2.46575 24.9506 2.75818 25.0199C3.08578 25.0949 3.37218 25.1824 3.61771 25.2833C3.86275 25.3841 4.06758 25.5048 4.23122 25.646C4.39469 25.7871 4.51925 25.9512 4.60391 26.1378C4.68874 26.3251 4.73108 26.545 4.73108 26.7982C4.73108 27.0802 4.67735 27.3336 4.57021 27.5583C4.46324 27.7825 4.31426 27.9724 4.12359 28.128C3.93293 28.2829 3.70352 28.4027 3.43617 28.4862C3.16833 28.5693 2.87378 28.6113 2.55319 28.6113C2.08101 28.6113 1.62951 28.5319 1.19803 28.3737C0.766559 28.2156 0.36716 27.9725 0 27.6441L0.647212 26.8846C0.944359 27.1378 1.24493 27.3326 1.5481 27.4678C1.85078 27.603 2.19531 27.6705 2.57989 27.6705C2.91188 27.6705 3.17598 27.6014 3.37104 27.463C3.56658 27.3251 3.66395 27.138 3.66395 26.9018C3.66395 26.793 3.6449 26.6948 3.60696 26.6085C3.56951 26.5222 3.49885 26.4416 3.39676 26.367C3.29467 26.292 3.15449 26.2233 2.9762 26.1595C2.79791 26.0962 2.5654 26.0329 2.279 25.9697C1.9514 25.8892 1.66061 25.8028 1.40693 25.7111C1.15261 25.6188 0.939149 25.5035 0.766885 25.3656C0.594132 25.2272 0.462573 25.062 0.372371 24.8689C0.28168 24.6764 0.236578 24.4388 0.236578 24.1572C0.236578 23.8921 0.288192 23.6518 0.39256 23.4363C0.496277 23.2206 0.639722 23.0344 0.821755 22.8795C1.00379 22.7239 1.22278 22.6048 1.47874 22.5212C1.73469 22.4381 2.01442 22.3961 2.31775 22.3961C2.76665 22.3961 3.17028 22.4604 3.52897 22.5903C3.88767 22.7195 4.22389 22.9084 4.53911 23.1556L3.96159 23.9587C3.68235 23.7569 3.40523 23.603 3.13137 23.4969C2.85701 23.3901 2.58038 23.3371 2.30049 23.3371C1.98527 23.3371 1.74088 23.4073 1.56585 23.5485C1.39081 23.6896 1.30338 23.8606 1.30338 24.0624L1.30289 24.0619Z" fill="#222222"/>
<path id="Vector_11" d="M22.6138 28.5248H21.5297V26.142L19.0986 22.4819H20.3664L22.0807 25.1581L23.8118 22.4819H25.0447L22.6136 26.1161V28.5246L22.6138 28.5248Z" fill="#222222"/>
<path id="Vector_12" d="M40.7497 24.0619C40.7497 24.1826 40.7703 24.2861 40.8111 24.3724C40.8518 24.4587 40.9262 24.5393 41.0344 24.6143C41.1426 24.6889 41.292 24.758 41.4817 24.8214C41.6719 24.8847 41.9125 24.9506 42.205 25.0199C42.5326 25.0949 42.819 25.1824 43.0645 25.2833C43.3095 25.3841 43.5144 25.5048 43.678 25.646C43.8415 25.7871 43.966 25.9512 44.0507 26.1378C44.1355 26.3251 44.1779 26.545 44.1779 26.7982C44.1779 27.0802 44.1241 27.3336 44.017 27.5583C43.91 27.7825 43.761 27.9724 43.5704 28.128C43.3797 28.2829 43.1503 28.4027 42.8829 28.4862C42.6151 28.5693 42.3206 28.6113 42 28.6113C41.5278 28.6113 41.0763 28.5319 40.6448 28.3737C40.2133 28.2156 39.8139 27.9725 39.4468 27.6441L40.094 26.8846C40.3911 27.1378 40.6917 27.3326 40.9949 27.4678C41.2976 27.603 41.6421 27.6705 42.0267 27.6705C42.3587 27.6705 42.6228 27.6014 42.8178 27.463C43.0134 27.3251 43.1107 27.138 43.1107 26.9018C43.1107 26.793 43.0917 26.6948 43.0537 26.6085C43.0163 26.5222 42.9456 26.4416 42.8435 26.367C42.7415 26.292 42.6013 26.2233 42.423 26.1595C42.2447 26.0962 42.0122 26.0329 41.7258 25.9697C41.3982 25.8892 41.1074 25.8028 40.8537 25.7111C40.5994 25.6188 40.3859 25.5035 40.2137 25.3656C40.0409 25.2272 39.9094 25.062 39.8191 24.8689C39.7285 24.6764 39.6834 24.4388 39.6834 24.1572C39.6834 23.8921 39.735 23.6518 39.8393 23.4363C39.9431 23.2206 40.0865 23.0344 40.2685 22.8795C40.4506 22.7239 40.6696 22.6048 40.9255 22.5212C41.1815 22.4381 41.4612 22.3961 41.7645 22.3961C42.2134 22.3961 42.6171 22.4604 42.9758 22.5903C43.3344 22.7195 43.6707 22.9084 43.9859 23.1556L43.4084 23.9587C43.1291 23.7569 42.852 23.603 42.5781 23.4969C42.3038 23.3901 42.0272 23.3371 41.7473 23.3371C41.432 23.3371 41.1877 23.4073 41.0126 23.5485C40.8376 23.6896 40.7502 23.8606 40.7502 24.0624L40.7497 24.0619Z" fill="#222222"/>
<path id="Vector_13" d="M62.944 28.5248H61.8599V23.4658H59.9185V22.4821H64.8853V23.4658H62.9438V28.5248H62.944Z" fill="#222222"/>
<path id="Vector_14" d="M85.2434 23.4401H81.7805V24.9941H84.85V25.9521H81.7805V27.5668H85.2868V28.5248H80.7134V22.4821H85.2434V23.4401Z" fill="#222222"/>
<path id="Vector_15" d="M104.096 27.04H104.061L102.155 24.2082V28.5248H101.088V22.4821H102.234L104.096 25.3391L105.959 22.4821H107.105V28.5248H106.037V24.191L104.097 27.04H104.096Z" fill="#222222"/>
<path id="Vector_16" d="M122.347 24.0619C122.347 24.1826 122.368 24.2861 122.408 24.3724C122.449 24.4587 122.523 24.5393 122.632 24.6143C122.74 24.6889 122.889 24.758 123.079 24.8214C123.269 24.8847 123.51 24.9506 123.802 25.0199C124.13 25.0949 124.416 25.1824 124.662 25.2833C124.907 25.3841 125.112 25.5048 125.275 25.646C125.439 25.7871 125.563 25.9512 125.648 26.1378C125.733 26.3251 125.775 26.545 125.775 26.7982C125.775 27.0802 125.721 27.3336 125.614 27.5583C125.507 27.7825 125.358 27.9724 125.168 28.128C124.977 28.2829 124.747 28.4027 124.48 28.4862C124.212 28.5693 123.918 28.6113 123.597 28.6113C123.125 28.6113 122.673 28.5319 122.242 28.3737C121.81 28.2156 121.411 27.9725 121.044 27.6441L121.691 26.8846C121.988 27.1378 122.289 27.3326 122.592 27.4678C122.895 27.603 123.239 27.6705 123.624 27.6705C123.956 27.6705 124.22 27.6014 124.415 27.463C124.611 27.3251 124.708 27.138 124.708 26.9018C124.708 26.793 124.689 26.6948 124.651 26.6085C124.613 26.5222 124.543 26.4416 124.441 26.367C124.339 26.292 124.198 26.2233 124.02 26.1595C123.842 26.0962 123.609 26.0329 123.323 25.9697C122.995 25.8892 122.705 25.8028 122.451 25.7111C122.197 25.6188 121.983 25.5035 121.811 25.3656C121.638 25.2272 121.507 25.062 121.416 24.8689C121.326 24.6764 121.281 24.4388 121.281 24.1572C121.281 23.8921 121.332 23.6518 121.437 23.4363C121.54 23.2206 121.684 23.0344 121.866 22.8795C122.048 22.7239 122.267 22.6048 122.523 22.5212C122.779 22.4381 123.058 22.3961 123.362 22.3961C123.811 22.3961 124.214 22.4604 124.573 22.5903C124.932 22.7195 125.268 22.9084 125.583 23.1556L125.006 23.9587C124.726 23.7569 124.449 23.603 124.175 23.4969C123.901 23.3901 123.624 23.3371 123.344 23.3371C123.029 23.3371 122.785 23.4073 122.61 23.5485C122.435 23.6896 122.347 23.8606 122.347 24.0624L122.347 24.0619Z" fill="#222222"/>
<path id="Vector_17" d="M61.7521 33.5687C77.2524 33.335 109.491 36.4695 118.283 46.2676C118.648 46.9641 118.184 47.5547 117.227 46.985C116.333 46.5603 113.993 45.5168 112.251 44.8541C111.203 44.4556 110.123 45.1971 110.029 46.3014C110.006 46.5724 109.936 46.8138 109.772 46.9804C109.423 47.3374 109.308 47.5722 108.232 46.8873C101.43 43.2515 88.2101 37.8428 60.168 38.2658C42.775 38.5286 26.1842 44.7374 26.2477 48.8266C26.2689 50.2276 27.9673 52.889 32.6147 54.9214C33.0917 55.1482 32.9786 55.5004 32.0305 55.3982C29.6621 55.3168 19.0682 51.388 18.9941 46.5989C18.974 45.3141 19.5382 43.5527 20.239 42.9573C19.5335 43.2015 18.7044 43.2144 17.7728 44.1631C17.1863 44.5234 16.2357 44.3037 17.045 43.0062C18.4323 40.882 31.6996 34.0221 61.7521 33.5687Z" fill="#00928F"/>
<path id="Vector_18" d="M63.2645 40.4723C68.2346 40.4723 86.4578 41.4059 95.9245 47.2485C96.5157 47.831 96.279 48.6495 93.9129 48.1821C92.3746 48.1821 89.5348 47.0146 85.8656 45.9622C81.9602 45.1447 76.5166 43.1593 63.2645 43.1593C56.7563 43.1593 46.9339 44.7951 38.8875 46.7811C37.5861 47.2485 36.1658 46.6636 37.7038 45.6125C41.018 43.8602 49.4189 40.4722 63.2644 40.4722" fill="#00928F"/>
<path id="Vector_19" d="M63.1465 44.9115C68.3533 44.9115 86.3398 45.8464 86.3398 50.2855C86.3398 52.5052 79.4759 56.2432 71.4295 55.4258C70.7206 55.4258 70.3648 54.8411 71.7851 54.8411C74.0322 54.7249 79.7125 53.0901 79.7125 50.753C79.7125 49.3508 74.9803 47.7148 63.3831 47.7148C57.7028 47.7148 50.7212 49.4682 50.7212 50.753C50.7212 51.6878 54.2708 53.79 60.8981 54.2573C61.8451 54.2573 61.7261 55.0757 60.6614 55.1921C56.875 55.6596 43.2661 55.5432 43.2661 50.6355C43.2661 48.767 46.3424 44.9115 63.1465 44.9115Z" fill="#00928F"/>
<path id="Vector_20" d="M35.4561 53.7898C35.4561 52.0376 36.284 48.767 40.6629 47.9485C41.4908 47.8323 41.7276 48.2996 41.1364 48.767C40.544 49.467 39.3615 51.3366 42.2011 52.9725C44.8039 54.491 52.1413 57.8791 65.6311 57.8791C73.5596 57.8791 84.5645 57.9953 93.9135 52.154C94.7415 51.6877 96.3985 51.6877 95.2149 53.3226C92.1386 55.8933 88.3522 61.1498 60.8977 61.1498C49.774 61.1498 35.4561 57.7628 35.4561 53.79" fill="#00928F"/>
<path id="Vector_21" d="M61.8448 64.421C83.0271 64.421 108.706 57.8782 112.492 49.7007C112.729 48.6496 114.03 47.2483 114.976 49.1175C115.569 50.2848 116.751 52.7382 114.976 54.724C109.652 60.7992 95.3341 69.4438 60.1878 69.4438C38.1781 69.4438 14.3936 60.4492 14.3936 51.6871C14.3936 51.6731 14.3936 51.659 14.3936 51.645C14.3965 50.0066 16.583 49.4393 17.4383 50.8434C20.6893 56.1798 32.1508 64.421 61.8448 64.421Z" fill="#00928F"/>
<path id="Vector_22" d="M8.12128 47.5982C8.8315 47.3645 9.4227 47.3645 8.94922 48.2994C8.12128 50.7526 7.29334 52.9723 10.1329 55.8929C14.0383 59.7473 15.5765 63.2527 37.5861 69.4441C38.414 69.6778 39.2431 70.0278 39.4799 70.8464C39.5976 71.3138 41.018 72.3638 39.1243 72.2486C32.0248 71.0788 4.09814 64.1876 4.09814 53.4395C4.09814 51.3362 5.28185 48.7666 8.12128 47.5981" fill="#00928F"/>
<path id="Vector_23" d="M44.9232 70.9631C44.4497 70.612 44.4497 70.0282 45.5144 70.3794C49.6565 71.313 57.2295 72.0142 64.3301 72.0142C85.7485 72.0142 112.846 63.837 119.119 52.8552C119.947 51.3367 121.485 50.5182 121.485 53.6737C121.485 63.0183 94.0317 74 64.3301 74C59.36 74 45.9879 73.7662 44.9232 70.9629" fill="#00928F"/>
</g>
<defs>
<clipPath id="clip0_1195_2012">
<rect width="130" height="74" fill="white"/>
</clipPath>
</defs>
</svg>
