<?xml version="1.0" encoding="UTF-8" standalone="no"?>
<svg width="24" height="24" viewBox="0 0 24 24" version="1.1" xmlns="http://www.w3.org/2000/svg">
  <path d="M12 3c-0.98 0-1.932 0.202-2.823 0.592-0.89 0.39-1.677 0.945-2.348 1.646-0.67 0.7-1.2 1.526-1.575 2.447C4.88 8.605 4.667 9.588 4.667 10.6c0 0.98 0.203 1.932 0.592 2.823 0.39 0.89 0.945 1.677 1.646 2.348 0.7 0.67 1.526 1.2 2.447 1.575C10.272 17.72 11.255 17.933 12.267 17.933c1.012 0 1.995-0.213 2.916-0.588 0.92-0.375 1.747-0.905 2.447-1.575 0.7-0.67 1.255-1.457 1.646-2.348 0.39-0.89 0.592-1.842 0.592-2.823 0-1.012-0.213-1.995-0.588-2.916-0.375-0.92-0.905-1.747-1.575-2.447-0.67-0.7-1.457-1.255-2.348-1.646C13.932 3.202 12.98 3 12 3zm0 2c0.713 0 1.406 0.147 2.057 0.43 0.65 0.284 1.223 0.69 1.713 1.2 0.49 0.51 0.877 1.112 1.16 1.762 0.284 0.65 0.43 1.344 0.43 2.057 0 0.713-0.147 1.406-0.43 2.057-0.284 0.65-0.69 1.223-1.2 1.713-0.51 0.49-1.112 0.877-1.762 1.16-0.65 0.284-1.344 0.43-2.057 0.43-0.713 0-1.406-0.147-2.057-0.43-0.65-0.284-1.223-0.69-1.713-1.2-0.49-0.51-0.877-1.112-1.16-1.762C5.647 11.766 5.5 11.072 5.5 10.36c0-0.713 0.147-1.406 0.43-2.057 0.284-0.65 0.69-1.223 1.2-1.713 0.51-0.49 1.112-0.877 1.762-1.16C9.542 5.147 10.236 5 10.95 5H12zm0.667 2.667v4h2.666v1.333h-4V7.667h1.334z" fill="currentColor"/>
</svg>