<?xml version="1.0" encoding="UTF-8"?>
<svg width="256" height="256" viewBox="0 0 256 256" fill="none" xmlns="http://www.w3.org/2000/svg">
    <!-- Background -->
    <rect width="256" height="256" rx="28" fill="#41BDF5"/>
    
    <!-- Main tank body -->
    <path d="M78 48h100v160H78z" stroke="#FFFFFF" stroke-width="12" fill="#41BDF5"/>
    
    <!-- Top cap -->
    <path d="M68 48h120v24H68z" fill="#FFFFFF"/>
    
    <!-- Bottom cap -->
    <path d="M68 184h120v24H68z" fill="#FFFFFF"/>
    
    <!-- Water level waves -->
    <path d="M88 128c10-5 20-5 30 0s20 5 30 0" stroke="#FFFFFF" stroke-width="8" fill="none"/>
    <path d="M88 148c10-5 20-5 30 0s20 5 30 0" stroke="#FFFFFF" stroke-width="8" fill="none"/>
    <path d="M88 168c10-5 20-5 30 0s20 5 30 0" stroke="#FFFFFF" stroke-width="8" fill="none"/>
    
    <!-- Salt crystals -->
    <path d="M98 88l12-12 12 12-12 12z" fill="#FFFFFF"/>
    <path d="M128 98l12-12 12 12-12 12z" fill="#FFFFFF"/>
</svg>